<svg xmlns="http://www.w3.org/2000/svg" xmlns:xlink="http://www.w3.org/1999/xlink" width="35" height="34" viewBox="0 0 35 34">
  <defs>
    <clipPath id="clip-path">
      <rect id="Rectangle_12511" data-name="Rectangle 12511" width="23.03" height="23" fill="none"/>
    </clipPath>
    <clipPath id="clip-Artboard_28">
      <rect width="35" height="34"/>
    </clipPath>
  </defs>
  <g id="Artboard_28" data-name="Artboard – 28" clip-path="url(#clip-Artboard_28)">
    <rect width="35" height="34" fill-opacity="0" fill="#fff"/>
    <g id="Group_93406" data-name="Group 93406" transform="translate(5.985 5.5)">
      <g id="Group_93406-2" data-name="Group 93406" clip-path="url(#clip-path)">
        <path id="Path_134442" data-name="Path 134442" d="M16.5,22.5H1.01a.51.51,0,0,1-.51-.51V1.01A.51.51,0,0,1,1.01.5H17.99a.51.51,0,0,1,.51.51V19.5Z" fill="#0c4160"/>
        <path id="Path_134443" data-name="Path 134443" d="M16.5,22.5H1.01a.51.51,0,0,1-.51-.51V1.01A.51.51,0,0,1,1.01.5H17.99a.51.51,0,0,1,.51.51V19.5Z" fill="none" stroke="#fff" stroke-miterlimit="10" stroke-width="1"/>
        <path id="Path_134444" data-name="Path 134444" d="M2.5,10.283v2.4l-2-1.2Z" fill="none" stroke="#fff" stroke-linecap="round" stroke-linejoin="round" stroke-width="1"/>
        <line id="Line_939" data-name="Line 939" x2="1" y2="2" transform="translate(5.5 8.5)" fill="none" stroke="#a09275" stroke-linecap="round" stroke-linejoin="round" stroke-width="1"/>
        <path id="Path_134445" data-name="Path 134445" d="M18.526,18.5H15.02a.5.5,0,0,0-.5.5v3.5" fill="none" stroke="#fff" stroke-linecap="round" stroke-linejoin="round" stroke-width="1"/>
        <path id="Path_134446" data-name="Path 134446" d="M5.5,8.48H21.53a1,1,0,0,1,1,1v4.006a1,1,0,0,1-1,1H5.5l-3-1.8V10.28Z" fill="#0c4160"/>
        <path id="Path_134447" data-name="Path 134447" d="M5.5,8.48H21.53a1,1,0,0,1,1,1v4.006a1,1,0,0,1-1,1H5.5l-3-1.8V10.28Z" fill="none" stroke="#fff" stroke-miterlimit="10" stroke-width="1"/>
        <line id="Line_940" data-name="Line 940" x2="12" transform="translate(6.5 10.5)" fill="none" stroke="#fff" stroke-linecap="round" stroke-linejoin="round" stroke-width="1"/>
        <line id="Line_941" data-name="Line 941" y1="4" x2="1" transform="translate(5.5 10.5)" fill="none" stroke="#fff" stroke-linecap="round" stroke-linejoin="round" stroke-width="1"/>
        <path id="Path_134448" data-name="Path 134448" d="M.5,14.99V22a.5.5,0,0,0,.5.5H15.521" fill="none" stroke="#fff" stroke-linecap="round" stroke-linejoin="round" stroke-width="1"/>
        <line id="Line_942" data-name="Line 942" x2="18" transform="translate(0.5 4.5)" fill="none" stroke="#fff" stroke-linecap="round" stroke-linejoin="round" stroke-width="1"/>
        <line id="Line_943" data-name="Line 943" y2="4" transform="translate(4.5 0.5)" fill="none" stroke="#fff" stroke-linecap="round" stroke-linejoin="round" stroke-width="1"/>
        <line id="Line_944" data-name="Line 944" y2="4" transform="translate(14.5 0.5)" fill="none" stroke="#fff" stroke-linecap="round" stroke-linejoin="round" stroke-width="1"/>
        <line id="Line_945" data-name="Line 945" y1="3" x2="2" transform="translate(16.5 19.5)" fill="none" stroke="#fff" stroke-linecap="round" stroke-linejoin="round" stroke-width="1"/>
        <line id="Line_946" data-name="Line 946" x1="12" transform="translate(0.5 19.5)" fill="none" stroke="#fff" stroke-linecap="round" stroke-linejoin="round" stroke-width="1"/>
      </g>
    </g>
  </g>
</svg>
