<svg xmlns="http://www.w3.org/2000/svg" xmlns:xlink="http://www.w3.org/1999/xlink" width="35" height="34" viewBox="0 0 35 34">
  <defs>
    <clipPath id="clip-Artboard_24">
      <rect width="35" height="34"/>
    </clipPath>
  </defs>
  <g id="Artboard_24" data-name="Artboard – 24" clip-path="url(#clip-Artboard_24)">
    <rect width="35" height="34" fill-opacity="0"/>
    <g id="Icon" transform="translate(11 5.598)">
      <path id="Path_3" data-name="Path 3" d="M94.158,415.641l.436.017.419.051.413.091.4.12.39.154.367.177.35.211.333.24.31.262.293.285.264.308.241.331.212.348.184.365.155.382.126.4.086.411.052.428.017.428v2.544H96.724v-2.544l-.017-.3-.052-.285-.08-.274-.109-.257-.143-.245-.166-.228-.184-.211-.207-.183-.23-.165-.247-.137-.264-.114-.281-.08-.287-.046-.3-.017-.293.017-.293.046-.275.08-.264.114-.247.137-.23.165-.212.183-.189.205-.161.228-.138.245-.109.262-.086.274-.052.285-.017.3v2.544H89.107v-2.544l.017-.428.057-.428.086-.411.126-.394.149-.388.184-.365.218-.342.235-.336.27-.308.287-.285.316-.262.327-.24.356-.211.367-.177.385-.154.4-.12.407-.091.425-.051.436-.017Z" transform="translate(-87.124 -415.641)" fill="#0c4160" fill-rule="evenodd"/>
      <path id="Path_4" data-name="Path 4" d="M94.337,426.241l-.211.017-.205.052-.193.073-.171.115-.153.13-.137.153-.1.176-.079.182-.056.2-.018.216.018.2.051.188.074.182.1.17.125.142.137.136.153.108-.438,2.353h2.226l-.444-2.353.159-.108.142-.13.126-.148.1-.164.068-.182.045-.188.018-.2-.023-.216-.045-.2-.079-.188-.114-.176-.126-.153-.159-.13-.177-.108-.182-.079-.205-.052-.215-.017Zm-5.67-2.989h11.339l.227.017.211.051.2.085.17.1.166.142.137.153.108.176.085.2.051.2.018.215v8.064l-.018.216-.051.2-.085.2-.108.177-.137.153-.159.141-.177.108-.194.085-.21.052-.223.017H88.667L88.45,434l-.211-.052-.193-.085-.182-.108-.155-.136-.136-.159-.108-.177-.086-.193-.051-.21-.018-.216V424.6l.018-.215.051-.2.086-.194.108-.181.136-.153.155-.137.176-.108.2-.08.211-.056.216-.017Z" transform="translate(-87.311 -414.849)" fill="#0c4160" fill-rule="evenodd"/>
    </g>
  </g>
</svg>
